Know Thy Enemy (#2.17) 

Elena and Alaric both lash out at John when Isobel's unexpected arrival leaves Jenna devastated. Bonnie works with Damon and Jeremy to find the spell they'll need to harness her ancestors' power. A heartbroken Caroline doesn't know what to do about Matt. Stefan and Damon realize they have a new secret weapon.

General
Complete name                    : The Vampire Diaries S02E17 HDTV_JHW.mp4
Format                           : MPEG-4
Format profile                   : Base Media / Version 2
Codec ID                         : mp42
File size                        : 399 MiB
Duration                         : 41mn 36s
Overall bit rate                 : 1 340 Kbps
Encoded date                     : UTC 2011-04-07 02:07:44
Tagged date                      : UTC 2011-04-07 02:07:44
Writing library                  : AVS 

Video
ID                               : 1
Format                           : AVC
Format/Info                      : Advanced Video Codec
Format profile                   : Main@L5.1
Format settings, CABAC           : Yes
Format settings, ReFrames        : 2 frames
Codec ID                         : avc1
Codec ID/Info                    : Advanced Video Coding
Duration                         : 41mn 36s
Bit rate mode                    : Variable
Bit rate                         : 1 206 Kbps
Width                            : 720 pixels
Height                           : 400 pixels
Display aspect ratio             : 16:9
Frame rate mode                  : Constant
Frame rate                       : 29.970 fps
Color space                      : YUV
Chroma subsampling               : 4:2:0
Bit depth                        : 8 bits
Scan type                        : Progressive
Bits/(Pixel*Frame)               : 0.140
Stream size                      : 359 MiB (90%)
Language                         : English

Audio
ID                               : 2
Format                           : AAC
Format/Info                      : Advanced Audio Codec
Format profile                   : LC
Codec ID                         : 40
Duration                         : 41mn 36s
Bit rate mode                    : Constant
Bit rate                         : 128 Kbps
Channel(s)                       : 2 channels
Channel positions                : Front: L R
Sampling rate                    : 48.0 KHz
Compression mode                 : Lossy
Stream size                      : 37.3 MiB (9%)
Language                         : English
Encoded date                     : UTC 2011-04-07 02:07:44
 
http://img534.imageshack.us/img534/3617/vlcsnap2011040722h11m57.png 
http://img862.imageshack.us/img862/4950/vlcsnap2011040722h13m08.png 
http://img714.imageshack.us/img714/535/vlcsnap2011040722h13m14.png 
http://img850.imageshack.us/img850/9818/vlcsnap2011040722h14m38.png